PathFileType	4	(X/Y/Z)	T1_P1_NoVision_Movement_2_0-680.trc
DataRate	CameraRate	NumFrames	NumMarkers	Units	OrigDataRate	OrigDataStartFrame	OrigNumFrames
60	60	4	27	m	60	340	680
Frame#	Time	RHip			RKnee			RAnkle			RBigToe			RSmallToe			RHeel			LHip			LKnee			LAnkle			LBigToe			LSmallToe			LHeel			Neck			Head			Nose			RShoulder			RElbow			RWrist			RThumb			RIndex			RPinky			LShoulder			LElbow			LWrist			LThumb			LIndex			LPinky		
		X1	Y1	Z1	X2	Y2	Z2	X3	Y3	Z3	X4	Y4	Z4	X5	Y5	Z5	X6	Y6	Z6	X7	Y7	Z7	X8	Y8	Z8	X9	Y9	Z9	X10	Y10	Z10	X11	Y11	Z11	X12	Y12	Z12	X13	Y13	Z13	X14	Y14	Z14	X15	Y15	Z15	X16	Y16	Z16	X17	Y17	Z17	X18	Y18	Z18	X19	Y19	Z19	X20	Y20	Z20	X21	Y21	Z21	X22	Y22	Z22	X23	Y23	Z23	X24	Y24	Z24	X25	Y25	Z25	X26	Y26	Z26	X27	Y27	Z27
341	5.683333333333334	-82.55532774715257	3830.800103697281	-573.9447070646722	276.9855157300903	4006.018905413919	-546.2769826862742	625.2242235626005	4150.6919318582895	-524.504944455571	697.5304623672542	4097.277694384091	-479.9648776436296	708.0663909555519	4124.410821261662	-564.8183635919447	660.9897940209881	4227.296827988726	-539.3717863862327	-102.81524887736123	3907.3402267826273	-364.44542896349185	234.25808608951607	4013.043521262478	-359.4556376575244	584.657238465059	4198.408873848833	-382.14052450070517	676.1585953319442	4161.918104919859	-346.2029005618358	652.5241308818244	4224.908081120186	-333.9954183472679	616.7428928664574	4271.61578024132	-416.4938778156673	-674.6774128256624	3678.022434226458	-463.1154284350703	-908.1089744736499	3524.5658694472454	-412.18161189909785	-744.1882343334564	3565.0879456451166	-404.27894707247407	-576.127972798101	3637.1240080546922	-589.9473148834728	-353.1706114114192	3505.305382362211	-580.1787264611326	-529.9783605209809	3358.069910193107	-440.474458307816	-656.843707238904	3407.4475686548644	-434.1319881514808	-659.7289910669373	3385.4457031178144	-411.30851330052786	-628.1565259489219	3346.367941551524	-406.804506465563	-626.7428810859708	3834.43358713105	-372.73698039010134	-390.54007296109376	4010.459856136075	-344.44230000226287	-135.23101972007225	3992.8378447899854	-245.40269483150905	-1.3756008573591503	3974.6102160776886	-236.23530167930127	13.66152732344915	3987.958813404167	-222.33243011751338	2.771191757170659	4012.361200952914	-225.191904151416
342	5.7	-82.59159643701717	3830.9978880550552	-574.039628924364	278.81728721145396	4025.2755967777957	-554.7356564175066	625.0822888798983	4150.881960205863	-524.4762545584853	696.0200751464278	4091.226192833277	-476.52641642161916	706.0842412914623	4100.286817600965	-541.4249150529719	660.9045293813845	4227.898569480294	-539.523687865822	-103.52908119172193	3905.2306122682053	-357.82855354833123	234.36127025689026	4013.141470386707	-359.58351186101555	584.6919142379903	4198.3681249758665	-382.20976997492016	681.3283757457386	4161.091665955006	-345.41406059028714	652.6338693318827	4225.266445065961	-334.01382667280257	621.4217744364787	4294.244525438353	-431.0809712640154	-674.7612069138195	3678.1309410272106	-463.1266317129176	-913.4288048360262	3547.2165465482935	-423.2732837153679	-744.1686956677054	3565.1798150760305	-404.43161998813497	-576.1714753685434	3637.162338363934	-589.9531560521859	-358.1855695005099	3505.0367614317825	-580.5008241123362	-534.4533118691659	3357.4414898757436	-440.61774682767293	-657.0689061280196	3407.767002683282	-434.11896392167944	-659.8081013359259	3386.4875696033796	-416.34027210608576	-628.383369610298	3346.6388602111797	-406.8381967378865	-626.7047746851783	3834.1624167080026	-372.5907665566272	-390.5418361956701	4010.385442798718	-344.42651507634747	-129.66566424301647	3994.8065319912084	-244.6971818718013	-1.253081561873811	3974.040279476491	-235.70652464232586	19.216123757870548	3989.6218716059075	-221.3563665871828	2.93331946476851	4012.4198782493168	-225.2998566722908
343	5.716666666666667	-82.44147410131686	3830.9024358272013	-573.9952241021001	278.9245529736129	4025.445931223821	-554.698819655496	625.3040277692874	4151.404753478301	-524.6147422705134	696.02974000885	4091.6621658715817	-476.75420363483425	707.7366469696834	4124.774240494361	-564.7756597430249	660.9011053823981	4227.859931588629	-539.4045977260039	-103.46005565828641	3905.267916909029	-357.78768075175725	240.33462121200697	4017.2656103197887	-361.38850649034146	584.4974558461066	4198.157245399585	-382.1533070220099	675.7997978191096	4157.967102835655	-346.2023803683506	646.5020802025272	4222.153794415182	-334.91651534480786	612.1039869767259	4239.193042908559	-409.88163865773225	-669.7472286833079	3679.5168484891124	-462.72497798590285	-917.9765982070661	3546.427570718554	-423.5845498769673	-744.3527402920678	3565.416280862273	-404.57234549616123	-576.0403530957267	3636.9274973498996	-590.01560573969	-358.2469369309916	3504.9589011167873	-580.5907100298921	-534.5347365265833	3356.7000639186763	-440.8104279928893	-657.7103727261554	3409.246524793419	-434.5687913497263	-665.5767784498381	3387.380025572642	-417.698841495097	-633.0490188465451	3370.434538818175	-412.5925702324709	-626.756118111968	3834.321166443264	-372.58062286638796	-390.55949893112614	4010.3608093826397	-344.3231562954961	-129.6878596764529	3994.8240074720225	-244.70431453829033	-1.2688142578774273	3974.5728595720557	-235.9450948880238	19.12546587604838	3990.065057374913	-221.53831951679547	2.8655454263609026	4012.4431103946554	-225.22147603510572
344	5.733333333333333	-81.97064974912547	3803.430463791449	-566.8731579346397	273.11225429207985	4021.2657579953107	-552.6192506209402	619.0756743362624	4147.551796071609	-524.9316105109353	695.9879243456318	4091.40240733284	-476.5844527127968	699.782650046718	4095.9601359827975	-539.0952315826733	660.8163910627587	4227.733223997032	-539.5047459043243	-103.4990375722437	3905.2667679804927	-357.79042847842544	234.25769533760447	4012.9122585134787	-359.51163607558783	584.5266427581046	4198.219634230127	-382.24406581212	675.7553796800863	4157.787560124066	-346.1666047192969	646.547769042766	4221.932568792475	-334.8966669670481	621.5396933351797	4294.2506765392445	-431.1303856315605	-669.8130206441655	3679.5932130975793	-462.80180617702575	-917.9771665961889	3546.326709565907	-423.50925468349817	-744.2918969888221	3565.2747185912576	-404.4653487625714	-576.0878846165638	3637.0016075299486	-590.1589372296883	-358.2722918683652	3504.9722014328995	-580.5497056560384	-534.5670542496506	3356.6689839488495	-440.8739819505231	-657.6326190539841	3409.450406973053	-435.0924975808671	-665.2565847946241	3387.3854280041746	-418.15125630741323	-648.3739697592565	3365.4107706888226	-400.1962361142823	-626.8141823477021	3834.2724147904796	-372.6113401961356	-390.6111467225549	4010.4966802026615	-344.43463630690627	-129.71248880280191	3994.7166707614833	-244.62782270759348	-6.0314814261523315	3970.864753921863	-234.2590599297542	18.698294326335464	3990.1610032164913	-221.59268287202485	2.8217599773324764	4012.7443688406825	-225.41070263214758
